<svg xmlns="http://www.w3.org/2000/svg" viewBox="0 0 2000 646" fill="none" role="img" aria-hidden="true">
  <ellipse cx="1000" cy="560" rx="900" ry="70" fill="#F4F4F5"/>
  <path d="M100 480 C 300 430, 420 520, 640 470 C 860 420, 980 500, 1200 450 C 1420 400, 1560 470, 1780 430 L 1900 460 L 1900 560 L 100 560 Z" fill="#F4F4F5"/>
  <path d="M180 400 C 380 360, 500 440, 720 400 C 940 360, 1060 430, 1280 390 C 1500 350, 1620 410, 1840 380" stroke="#EDEDF0" stroke-width="2" fill="none"/>

  <path d="M470 320 C 620 300, 700 360, 850 320 C 1000 280, 1100 340, 1260 300 C 1350 278, 1400 260, 1440 250"
        stroke="#1D4ED8" stroke-width="10" stroke-linecap="round" stroke-dasharray="2 28"/>

  <g transform="translate(430, 210)">
    <ellipse cx="0" cy="108" rx="30" ry="8" fill="#D4D4D8" opacity="0.6"/>
    <path d="M0 0 C -27 0 -48 21 -48 48 C -48 84 0 130 0 130 C 0 130 48 84 48 48 C 48 21 27 0 0 0 Z" fill="#D4D4D8"/>
    <circle cx="0" cy="46" r="22" fill="#FAFAFA"/>
  </g>

  <g transform="translate(1470, 55)">
    <ellipse cx="0" cy="118" rx="34" ry="9" fill="#1D4ED8" opacity="0.15"/>
    <path d="M0 0 C -30 0 -53 23 -53 53 C -53 93 0 143 0 143 C 0 143 53 93 53 53 C 53 23 30 0 0 0 Z" fill="#1D4ED8"/>
    <circle cx="0" cy="51" r="24" fill="#FAFAFA"/>
  </g>

  <g transform="translate(1370, 195)">
    <ellipse cx="90" cy="245" rx="150" ry="16" fill="#D4D4D8" opacity="0.4"/>
    <path d="M-10 100 q0 -30 30 -30 h20 q0 -22 20 -22 q20 0 20 22 h30 q30 0 30 30 v20 h-110 Z" fill="#E4E4E7"/>
    <rect x="20" y="90" width="200" height="140" fill="#FFFFFF" stroke="#E4E4E7" stroke-width="2"/>
    <path d="M10 90 L120 20 L230 90 Z" fill="#1D4ED8"/>
    <rect x="95" y="160" width="50" height="70" fill="#1D4ED8"/>
    <rect x="165" y="140" width="18" height="18" fill="#1D4ED8"/>
    <rect x="165" y="168" width="18" height="18" fill="#1D4ED8"/>
    <rect x="20" y="90" width="200" height="10" fill="#1D4ED8" opacity="0.85"/>

    <g transform="translate(260, 30)">
      <rect x="0" y="0" width="10" height="130" fill="#D4D4D8"/>
      <path d="M5 0 C 30 20, -20 40, 5 60 C 30 80, -20 95, 5 115" stroke="#D4D4D8" stroke-width="8" fill="none" stroke-linecap="round" opacity="0.7"/>
    </g>

    <g transform="translate(230, 200)">
      <rect x="0" y="10" width="90" height="60" rx="6" fill="#1D4ED8"/>
      <path d="M6 10 L45 34 L84 10" stroke="#FFFFFF" stroke-width="4" fill="none" stroke-linecap="round" stroke-linejoin="round"/>
      <circle cx="45" cy="48" r="16" fill="#FFFFFF"/>
      <path d="M37 48 l6 6 l12 -13" stroke="#1D4ED8" stroke-width="4" fill="none" stroke-linecap="round" stroke-linejoin="round"/>
    </g>
  </g>
</svg>
